HIERARCHY
ROOT Hips
{
	OFFSET 0.000000 0.000000 0.000000
	CHANNELS 6 Xposition Yposition Zposition Yrotation Xrotation Zrotation
	JOINT Chest
	{
		OFFSET 0.000000 -0.009281 11.569106
		CHANNELS 3 Yrotation Xrotation Zrotation
		JOINT Chest2
		{
			OFFSET -0.000000 0.016865 9.269641
			CHANNELS 3 Yrotation Xrotation Zrotation
			JOINT Chest3
			{
				OFFSET -0.000000 0.000001 8.374491
				CHANNELS 3 Yrotation Xrotation Zrotation
				JOINT Chest4
				{
					OFFSET -0.000000 0.000001 8.374493
					CHANNELS 3 Yrotation Xrotation Zrotation
					JOINT Neck
					{
						OFFSET -0.000000 0.000002 12.152554
						CHANNELS 3 Yrotation Xrotation Zrotation
						JOINT Head
						{
							OFFSET -0.000000 0.040101 7.802319
							CHANNELS 3 Yrotation Xrotation Zrotation
							End Site
							{
								OFFSET -0.000000 0.020947 14.853096
							}
						}
					}
					JOINT RightCollar
					{
						OFFSET 2.894404 0.000001 6.791374
						CHANNELS 3 Yrotation Xrotation Zrotation
						JOINT RightShoulder
						{
							OFFSET 13.574684 0.000001 0.000000
							CHANNELS 3 Yrotation Xrotation Zrotation
							JOINT RightElbow
							{
								OFFSET 23.923903 0.000002 0.000000
								CHANNELS 3 Yrotation Xrotation Zrotation
								JOINT RightWrist
								{
									OFFSET 19.846718 0.012767 0.000000
									CHANNELS 3 Yrotation Xrotation Zrotation
									End Site
									{
										OFFSET 14.973145 0.000001 0.000000
									}
								}
							}
						}
					}
					JOINT LeftCollar
					{
						OFFSET -2.894404 0.000001 6.791374
						CHANNELS 3 Yrotation Xrotation Zrotation
						JOINT LeftShoulder
						{
							OFFSET -13.574684 -0.000001 0.000000
							CHANNELS 3 Yrotation Xrotation Zrotation
							JOINT LeftElbow
							{
								OFFSET -23.923903 -0.000002 0.000000
								CHANNELS 3 Yrotation Xrotation Zrotation
								JOINT LeftWrist
								{
									OFFSET -19.846718 0.012763 0.000000
									CHANNELS 3 Yrotation Xrotation Zrotation
									End Site
									{
										OFFSET -14.973145 -0.000001 0.000000
									}
								}
							}
						}
					}
				}
			}
		}
	}
	JOINT RightHip
	{
		OFFSET 9.469263 0.004643 0.045487
		CHANNELS 3 Yrotation Xrotation Zrotation
		JOINT RightKnee
		{
			OFFSET 0.000000 0.002661 -40.478676
			CHANNELS 3 Yrotation Xrotation Zrotation
			JOINT RightAnkle
			{
				OFFSET 0.000000 0.049106 -35.224068
				CHANNELS 3 Yrotation Xrotation Zrotation
				JOINT RightToe
				{
					OFFSET -0.000001 12.539529 -6.151390
					CHANNELS 3 Yrotation Xrotation Zrotation
					End Site
					{
						OFFSET -0.000001 5.044994 -1.291870
					}
				}
			}
		}
	}
	JOINT LeftHip
	{
		OFFSET -9.469263 0.004641 0.045487
		CHANNELS 3 Yrotation Xrotation Zrotation
		JOINT LeftKnee
		{
			OFFSET 0.000000 0.002661 -40.478676
			CHANNELS 3 Yrotation Xrotation Zrotation
			JOINT LeftAnkle
			{
				OFFSET 0.000000 0.049106 -35.224068
				CHANNELS 3 Yrotation Xrotation Zrotation
				JOINT LeftToe
				{
					OFFSET -0.000001 12.539529 -6.151390
					CHANNELS 3 Yrotation Xrotation Zrotation
					End Site
					{
						OFFSET -0.000001 5.044994 -1.291870
					}
				}
			}
		}
	}
}
MOTION
Frames: 16
Frame Time: 0.016667
71.472267 4.418948 82.097046 -5.355734 -1.101779 -59.030914 3.373598 -0.706779 -6.482089 1.619344 -0.311444 -2.965485 1.619343 -0.311444 -2.965485 1.213027 -0.241450 -2.223299 3.239198 -16.167433 -8.826328 2.851784 6.063094 -15.243237 10.080149 4.623247 -0.645372 54.214534 7.898355 -24.927399 -6.937190 -14.660105 -12.555762 -0.976159 3.923135 3.648229 -11.019402 -1.523079 -2.376716 -79.729454 -7.105579 -15.558146 -7.748586 6.785166 -16.194187 8.065326 0.991952 -18.848713 7.148276 14.075250 17.871093 -0.609896 -4.812468 1.924715 11.502431 -5.465070 6.693196 -3.634760 0.061713 0.201627 -5.363093 -16.787237 -7.588029 0.254707 -11.853298 7.753427 8.075497 6.593684 -1.486865 -0.726145 16.516651 -0.291169 
73.078705 4.771077 82.472832 -6.080215 -1.677264 -58.348879 3.647620 -0.651643 -6.363423 1.737942 -0.295255 -2.882271 1.737942 -0.295255 -2.882273 1.302095 -0.229647 -2.160881 3.630097 -16.354289 -9.193722 3.464565 5.735306 -15.776472 10.010378 5.022844 -0.622461 52.858400 6.381581 -25.893821 -6.897409 -17.109745 -12.854482 -0.920499 2.480597 2.545371 -10.901425 -1.180093 -2.390070 -80.499189 -6.826091 -14.828257 -8.243800 5.336704 -16.696946 8.112427 1.122465 -19.134756 7.863132 12.695408 17.650773 -0.520628 -4.786638 2.072339 12.552330 -5.520908 5.656129 -4.166810 0.957033 0.289295 -4.099497 -17.284757 -8.067124 0.360470 -13.006315 7.726939 8.768078 4.486536 -1.842540 -1.392249 20.154814 -0.333823 
74.685013 5.086080 82.834709 -6.864887 -2.257816 -57.814505 3.986121 -0.617647 -6.173303 1.850402 -0.291126 -2.785446 1.850402 -0.291125 -2.785445 1.386505 -0.226786 -2.088222 4.007113 -16.512739 -9.535764 4.058027 5.461172 -16.269586 9.819611 5.303034 -0.749706 51.879067 4.736644 -26.432494 -6.966549 -18.964046 -13.067894 -1.179051 1.149509 1.862201 -10.725450 -0.909339 -2.353898 -81.276020 -6.316908 -14.048010 -8.762231 3.814793 -17.035702 8.175996 1.244860 -19.334066 8.904741 11.419432 16.858679 -0.279359 -5.006484 1.176900 12.720517 -5.405124 6.255687 -4.279234 1.318428 0.349415 -2.876462 -17.519686 -8.474144 0.388066 -14.645759 7.815035 9.673027 2.258667 -2.100743 -2.284569 24.097114 -0.549003 
76.281494 5.409948 83.138550 -7.641653 -2.595121 -57.273199 4.142395 -0.644872 -6.044696 1.952591 -0.298620 -2.693060 1.952590 -0.298621 -2.693063 1.463157 -0.232577 -2.018863 4.368129 -16.663334 -9.846599 4.632163 5.202549 -16.711472 9.647071 5.250605 -0.798949 51.004028 3.344507 -26.438375 -6.995356 -20.652600 -13.251656 -1.430818 0.205153 1.409832 -10.501118 -0.799420 -2.255666 -81.948241 -5.817372 -13.300874 -9.247777 2.460058 -17.298564 8.135247 1.366225 -19.324897 9.651017 9.970466 15.245665 0.099042 -5.157391 0.817754 12.307509 -5.296817 7.224717 -4.000895 1.671019 0.376749 -1.854963 -17.581682 -8.843894 0.325212 -16.687658 7.890349 10.759235 -0.271501 -2.516135 -3.266934 28.466321 -0.816559 
77.805153 5.755145 83.422562 -8.377231 -2.974971 -56.613153 4.352033 -0.597418 -5.966148 2.030923 -0.293172 -2.623842 2.030923 -0.293173 -2.623839 1.521963 -0.228606 -1.966927 4.734407 -16.815758 -10.148546 5.219361 4.942391 -17.135604 9.511038 5.046581 -0.884714 50.112934 2.086115 -26.139402 -6.928281 -22.425172 -13.244437 -1.449871 -0.422154 1.085234 -10.265335 -0.807121 -2.220804 -82.465662 -5.426517 -12.516190 -9.628641 1.578828 -17.585816 7.874191 1.278974 -19.025608 10.396079 8.408913 14.035445 0.525731 -4.827094 1.335348 11.614405 -5.107409 6.956592 -3.456635 1.969584 0.326126 -0.824899 -17.223297 -9.242008 0.220364 -19.135779 8.090253 11.950248 -3.159757 -3.375968 -4.155126 33.301359 -0.989955 
79.150742 6.202765 83.081375 -8.173289 -2.490175 -55.587915 3.359876 -0.313451 -6.135121 2.092718 -0.250567 -2.589209 2.092719 -0.250568 -2.589208 1.568508 -0.196798 -1.941070 5.114339 -16.966385 -10.454189 5.830350 4.687608 -17.562535 9.394712 4.920576 -1.055177 49.251521 0.716514 -25.666553 -6.733689 -24.135947 -13.083978 -1.338218 -0.870921 0.756532 -10.074299 -0.872510 -2.276206 -82.875330 -5.173908 -11.677345 -9.882758 1.272470 -17.864421 7.594298 0.958474 -18.601995 9.770814 7.185903 12.915562 0.954744 -4.210658 0.804228 10.613169 -5.697699 6.879819 -2.720822 2.788637 0.409855 -0.944851 -16.192024 -9.798491 0.244494 -22.123013 8.554497 12.799230 -5.527200 -5.411988 -4.173033 37.937067 -0.165340 
80.380836 6.565198 82.891701 -7.768349 -2.342747 -54.373398 2.533313 0.192082 -6.332711 2.155086 -0.174447 -2.583029 2.155086 -0.174446 -2.583029 1.615609 -0.139948 -1.936683 5.490370 -17.102184 -10.773458 6.428101 4.460079 -18.017182 9.299128 4.908400 -1.285952 48.489753 -0.840878 -25.093502 -6.469870 -25.560091 -12.788975 -1.200101 -1.262598 0.425329 -9.866027 -1.108290 -2.272075 -83.226217 -5.114321 -11.029138 -10.023651 1.381904 -18.015290 7.423577 0.705966 -18.195926 9.364285 6.601299 11.915590 1.485734 -4.205476 -0.705999 9.577367 -5.044242 7.762338 -2.113800 2.587396 0.323182 -0.628272 -14.254893 -10.209672 0.292720 -25.636615 9.173928 13.420882 -8.125317 -7.739860 -4.024883 42.922384 0.632626 
81.588356 7.025807 82.686378 -7.973073 -2.546860 -53.319735 2.298843 0.280604 -6.193251 2.230867 -0.088114 -2.571870 2.230868 -0.088114 -2.571867 1.672814 -0.075477 -1.928611 5.875493 -17.178836 -11.138363 7.021281 4.341706 -18.555177 9.147883 5.109244 -1.567976 47.934869 -2.313632 -24.423602 -6.230779 -26.772385 -12.524918 -1.165782 -1.670045 0.142293 -9.681829 -1.229533 -2.280202 -83.409430 -5.094195 -10.462362 -10.118282 1.607793 -17.844971 7.413422 0.794780 -17.939166 9.600126 5.871745 11.089943 1.963914 -4.553112 -1.773139 8.690259 -3.989245 8.370317 -1.574193 2.286727 0.247602 0.451901 -12.011031 -10.280880 0.264131 -29.629036 9.785371 14.854244 -11.507901 -9.064072 -5.899165 48.694594 -0.471368 
82.809113 7.512060 82.431793 -9.163970 -3.369180 -52.155410 3.140104 -0.129910 -5.997587 2.333332 -0.025938 -2.543984 2.333332 -0.025938 -2.543982 1.749926 -0.029167 -1.907923 6.255629 -17.151351 -11.538648 7.582669 4.414726 -19.163171 9.121475 5.530873 -1.486769 47.330684 -3.401153 -23.914386 -6.027151 -27.870105 -12.255509 -1.206315 -2.079938 -0.138924 -9.660230 -0.880532 -2.174064 -83.417435 -5.087129 -9.795022 -10.099412 1.747984 -17.268468 7.497343 1.233840 -17.912325 10.999227 4.861617 10.010608 2.423422 -5.113548 -1.576515 7.689904 -3.033412 7.774842 -1.025310 2.408847 0.333946 2.643425 -9.745918 -10.143329 0.114061 -33.649863 10.173575 17.393900 -15.764324 -9.216002 -10.993732 54.902628 -4.418462 
83.885345 8.009829 82.115517 -10.109355 -4.358701 -50.898290 3.985209 -0.296375 -5.746543 2.439426 0.017700 -2.497104 2.439426 0.017700 -2.497104 1.829679 0.003307 -1.872932 6.638825 -17.013279 -11.964247 8.129215 4.692123 -19.819500 9.157298 5.766672 -1.271795 46.847718 -4.126767 -23.204953 -5.940172 -28.937684 -11.945263 -1.299647 -2.566747 -0.394154 -9.616621 -0.537101 -1.955765 -83.430105 -5.127317 -9.419423 -9.876822 1.967749 -16.398591 7.686641 1.777121 -18.161253 12.238638 4.320301 9.486462 2.964525 -5.747818 -1.592770 7.068093 -1.670065 7.132721 -0.747735 2.191317 0.081516 4.738704 -7.024319 -9.477617 0.352552 -37.414499 9.859551 19.944260 -19.324731 -9.342617 -17.471282 59.801537 -9.487317 
84.839172 8.477440 81.776062 -10.821839 -5.391129 -49.610772 4.733074 -0.307486 -5.360930 2.533317 0.041386 -2.443912 2.533317 0.041386 -2.443910 1.900189 0.020909 -1.833140 7.043826 -16.771360 -12.406385 8.698340 5.163646 -20.501030 9.107715 5.639948 -1.265094 46.721171 -4.736816 -21.900563 -5.992536 -29.970498 -11.690519 -1.477702 -3.144235 -0.564930 -9.532951 -0.677484 -1.985070 -83.487540 -5.020470 -9.629517 -9.389824 2.582163 -15.401528 8.133563 2.207214 -18.749563 13.407579 4.100111 9.630385 3.549099 -6.338370 -2.441526 6.366423 -0.182041 6.657838 -0.443995 1.788825 -0.021912 6.621696 -4.100624 -8.169996 1.125909 -40.811497 8.885922 21.742866 -21.555423 -8.788170 -24.860094 62.531912 -15.116445 
85.719475 8.907743 81.457130 -11.309611 -6.412493 -48.024064 5.362252 -0.179808 -5.129946 2.620725 0.065228 -2.403499 2.620726 0.065227 -2.403502 1.965836 0.038614 -1.802946 7.448437 -16.469497 -12.844001 9.260546 5.746674 -21.175453 8.951717 5.238754 -1.403187 46.934079 -5.443686 -20.134552 -6.164827 -30.784588 -11.522962 -1.790903 -3.769143 -0.615319 -9.498804 -0.834974 -2.146813 -83.672857 -5.049922 -9.811578 -8.601816 3.755620 -14.388246 8.955300 2.601426 -19.715681 14.402970 4.152822 9.887475 4.242825 -6.796909 -3.742012 5.521080 1.202947 6.211085 -0.126647 1.423971 -0.021225 8.299569 -1.058957 -6.474399 2.567816 -43.455002 7.521107 22.626916 -21.906768 -7.265740 -31.977580 62.160862 -19.660452 
86.548897 9.314460 81.189095 -11.642851 -7.305143 -46.063209 5.843541 0.025111 -5.122113 2.694870 0.090038 -2.390772 2.694871 0.090038 -2.390768 2.021542 0.056989 -1.793520 7.854858 -16.168345 -13.279696 9.825500 6.329365 -21.845230 8.724116 4.860212 -1.604212 47.437433 -6.378216 -18.202026 -6.498936 -31.334678 -11.464563 -2.280146 -4.380588 -0.460620 -9.502128 -0.709011 -2.269133 -83.966343 -5.442150 -9.615876 -7.596186 5.374258 -13.362846 10.163908 3.221225 -21.035637 15.216350 4.414601 10.262744 4.935417 -7.231089 -5.542741 4.675097 2.365704 5.823105 0.143898 1.278861 -0.010543 9.753741 2.126010 -4.728436 4.485576 -45.211597 6.005814 23.497543 -21.254290 -6.682823 -36.271426 60.325686 -21.565658 
87.367760 9.707003 80.972542 -11.924184 -7.901060 -43.963920 6.133350 0.171188 -5.121416 2.748156 0.110253 -2.402347 2.748157 0.110253 -2.402350 2.061588 0.071890 -1.802298 8.254913 -15.899962 -13.728294 10.376545 6.851159 -22.540099 8.580779 4.777797 -1.735030 47.979627 -7.404162 -16.466551 -6.988900 -31.758798 -11.445652 -3.045083 -4.997906 -0.073064 -9.483471 -0.663352 -2.337998 -84.259249 -5.958156 -9.399244 -6.544813 7.038311 -12.319902 11.639611 4.124540 -22.488649 15.935648 4.529200 10.636791 5.369123 -7.520587 -7.094162 3.874732 3.375717 5.013645 0.402779 1.237910 0.084871 10.780811 5.416880 -3.547682 5.801003 -46.422139 4.738813 23.785116 -20.403489 -6.830780 -36.548178 58.271732 -20.919766 
88.208534 10.104773 80.790161 -12.236489 -8.311532 -41.838242 6.401109 0.196961 -5.066573 2.771386 0.139099 -2.412295 2.771387 0.139099 -2.412296 2.079126 0.093389 -1.809896 8.649448 -15.648684 -14.198102 10.910487 7.340714 -23.275789 8.463008 4.970376 -1.813196 48.601106 -8.344282 -14.911244 -7.582691 -32.239521 -11.421459 -4.095217 -5.562746 0.394004 -9.491683 -0.720761 -2.375726 -84.463410 -6.206117 -9.202998 -5.540182 8.253624 -11.268481 13.107425 5.101525 -23.846748 16.561832 4.418787 10.675910 5.724356 -7.593724 -7.904388 3.063495 4.344115 3.762528 0.605488 1.148315 0.185591 11.451190 8.745828 -3.310839 6.100776 -47.406919 4.151252 23.624113 -19.689962 -7.244905 -34.544013 56.307888 -19.099231 
89.032700 10.549872 80.622910 -12.490561 -8.592464 -39.647366 6.564684 0.193964 -5.020619 2.760678 0.180331 -2.393063 2.760679 0.180330 -2.393064 2.071251 0.124443 -1.795656 9.050095 -15.417632 -14.713103 11.440521 7.792703 -24.092818 8.504522 5.166901 -1.732183 49.242300 -8.927055 -13.434931 -8.175453 -32.824629 -11.399369 -5.231609 -6.138902 0.801431 -9.487801 -0.844825 -2.437747 -84.518059 -6.113888 -8.998373 -4.620406 8.886569 -10.186991 14.370588 5.969868 -25.038999 16.974717 4.150240 10.282620 6.088263 -7.380539 -8.451837 2.339488 5.222896 2.818260 0.682247 0.984475 0.169563 11.612122 12.148004 -4.094307 5.706551 -48.095962 4.080500 22.821224 -18.894704 -7.190471 -31.387096 53.693504 -16.440721 
